{
  "asset": {
    "version": "2.0",
    "generator": "THREE.GLTFExporter r181"
  },
  "scenes": [
    {
      "name": "AuxScene",
      "nodes": [
        0
      ]
    }
  ],
  "scene": 0,
  "nodes": [
    {
      "children": [
        1
      ]
    },
    {
      "children": [
        2
      ]
    },
    {
      "children": [
        3
      ]
    },
    {
      "children": [
        4
      ]
    },
    {
      "rotation": [
        0,
        0.3826834323650898,
        0,
        0.9238795325112867
      ],
      "scale": [
        0.2441287046530931,
        -0.2441287046530931,
        0.2441287046530931
      ],
      "children": [
        5,
        7,
        9,
        11,
        13,
        15,
        17
      ]
    },
    {
      "children": [
        6
      ]
    },
    {
      "translation": [
        -204.81499862670898,
        -165.05500030517578,
        -25
      ],
      "mesh": 0
    },
    {
      "children": [
        8
      ]
    },
    {
      "translation": [
        -204.81499862670898,
        -165.05500030517578,
        -25
      ],
      "mesh": 1
    },
    {
      "children": [
        10
      ]
    },
    {
      "translation": [
        -204.81499862670898,
        -165.05500030517578,
        -25
      ],
      "mesh": 2
    },
    {
      "children": [
        12
      ]
    },
    {
      "translation": [
        -204.81499862670898,
        -165.05500030517578,
        -25
      ],
      "mesh": 3
    },
    {
      "children": [
        14
      ]
    },
    {
      "translation": [
        -204.81499862670898,
        -165.05500030517578,
        -25
      ],
      "mesh": 4
    },
    {
      "children": [
        16
      ]
    },
    {
      "translation": [
        -204.81499862670898,
        -165.05500030517578,
        -25
      ],
      "mesh": 5
    },
    {
      "children": [
        18
      ]
    },
    {
      "translation": [
        -204.81499862670898,
        -165.05500030517578,
        -25
      ],
      "mesh": 6
    }
  ],
  "bufferViews": [
    {
      "buffer": 0,
      "byteOffset": 0,
      "byteLength": 97056,
      "target": 34962,
      "byteStride": 12
    },
    {
      "buffer": 0,
      "byteOffset": 97056,
      "byteLength": 64704,
      "target": 34962,
      "byteStride": 8
    },
    {
      "buffer": 0,
      "byteOffset": 161760,
      "byteLength": 97056,
      "target": 34962,
      "byteStride": 12
    },
    {
      "buffer": 0,
      "byteOffset": 258816,
      "byteLength": 101808,
      "target": 34962,
      "byteStride": 12
    },
    {
      "buffer": 0,
      "byteOffset": 360624,
      "byteLength": 67872,
      "target": 34962,
      "byteStride": 8
    },
    {
      "buffer": 0,
      "byteOffset": 428496,
      "byteLength": 101808,
      "target": 34962,
      "byteStride": 12
    },
    {
      "buffer": 0,
      "byteOffset": 530304,
      "byteLength": 101808,
      "target": 34962,
      "byteStride": 12
    },
    {
      "buffer": 0,
      "byteOffset": 632112,
      "byteLength": 67872,
      "target": 34962,
      "byteStride": 8
    },
    {
      "buffer": 0,
      "byteOffset": 699984,
      "byteLength": 101808,
      "target": 34962,
      "byteStride": 12
    },
    {
      "buffer": 0,
      "byteOffset": 801792,
      "byteLength": 97056,
      "target": 34962,
      "byteStride": 12
    },
    {
      "buffer": 0,
      "byteOffset": 898848,
      "byteLength": 64704,
      "target": 34962,
      "byteStride": 8
    },
    {
      "buffer": 0,
      "byteOffset": 963552,
      "byteLength": 97056,
      "target": 34962,
      "byteStride": 12
    },
    {
      "buffer": 0,
      "byteOffset": 1060608,
      "byteLength": 97776,
      "target": 34962,
      "byteStride": 12
    },
    {
      "buffer": 0,
      "byteOffset": 1158384,
      "byteLength": 65184,
      "target": 34962,
      "byteStride": 8
    },
    {
      "buffer": 0,
      "byteOffset": 1223568,
      "byteLength": 97776,
      "target": 34962,
      "byteStride": 12
    },
    {
      "buffer": 0,
      "byteOffset": 1321344,
      "byteLength": 87696,
      "target": 34962,
      "byteStride": 12
    },
    {
      "buffer": 0,
      "byteOffset": 1409040,
      "byteLength": 58464,
      "target": 34962,
      "byteStride": 8
    },
    {
      "buffer": 0,
      "byteOffset": 1467504,
      "byteLength": 87696,
      "target": 34962,
      "byteStride": 12
    },
    {
      "buffer": 0,
      "byteOffset": 1555200,
      "byteLength": 97056,
      "target": 34962,
      "byteStride": 12
    },
    {
      "buffer": 0,
      "byteOffset": 1652256,
      "byteLength": 64704,
      "target": 34962,
      "byteStride": 8
    },
    {
      "buffer": 0,
      "byteOffset": 1716960,
      "byteLength": 97056,
      "target": 34962,
      "byteStride": 12
    }
  ],
  "buffers": [
    {
      "byteLength": 1814016,
      "uri": "data:application/octet-stream;base64,"
    }
  ],
  "accessors": [
    {
      "bufferView": 0,
      "componentType": 5126,
      "count": 8088,
      "max": [
        152.10000610351562,
        141.3699951171875,
        50
      ],
      "min": [
        100.51000213623047,
        89.77999877929688,
        0
      ],
      "type": "VEC3"
    },
    {
      "bufferView": 1,
      "componentType": 5126,
      "count": 8088,
      "max": [
        152.10000610351562,
        141.3699951171875
      ],
      "min": [
        94.15499877929688,
        -49
      ],
      "type": "VEC2"
    },
    {
      "bufferView": 2,
      "componentType": 5126,
      "count": 8088,
      "max": [
        1,
        1,
        1
      ],
      "min": [
        -0.9999846816062927,
        -0.9998413920402527,
        -1
      ],
      "type": "VEC3"
    },
    {
      "bufferView": 3,
      "componentType": 5126,
      "count": 8484,
      "max": [
        202.4600067138672,
        141.36000061035156,
        50
      ],
      "min": [
        155.8000030517578,
        90.25,
        0
      ],
      "type": "VEC3"
    },
    {
      "bufferView": 4,
      "componentType": 5126,
      "count": 8484,
      "max": [
        202.4600067138672,
        141.36000061035156
      ],
      "min": [
        93.5606460571289,
        -49
      ],
      "type": "VEC2"
    },
    {
      "bufferView": 5,
      "componentType": 5126,
      "count": 8484,
      "max": [
        0.9999935030937195,
        1,
        1
      ],
      "min": [
        -1,
        -1,
        -1
      ],
      "type": "VEC3"
    },
    {
      "bufferView": 6,
      "componentType": 5126,
      "count": 8484,
      "max": [
        252.83999633789062,
        141.36000061035156,
        50
      ],
      "min": [
        206.17999267578125,
        90.25,
        0
      ],
      "type": "VEC3"
    },
    {
      "bufferView": 7,
      "componentType": 5126,
      "count": 8484,
      "max": [
        252.83999633789062,
        141.36000061035156
      ],
      "min": [
        93.5606460571289,
        -49
      ],
      "type": "VEC2"
    },
    {
      "bufferView": 8,
      "componentType": 5126,
      "count": 8484,
      "max": [
        0.9999935030937195,
        1,
        1
      ],
      "min": [
        -0.9999999403953552,
        -1,
        -1
      ],
      "type": "VEC3"
    },
    {
      "bufferView": 9,
      "componentType": 5126,
      "count": 8088,
      "max": [
        308.1600036621094,
        141.3699951171875,
        50
      ],
      "min": [
        256.57000732421875,
        89.77999877929688,
        0
      ],
      "type": "VEC3"
    },
    {
      "bufferView": 10,
      "componentType": 5126,
      "count": 8088,
      "max": [
        308.1600036621094,
        141.3699951171875
      ],
      "min": [
        94.15499877929688,
        -49
      ],
      "type": "VEC2"
    },
    {
      "bufferView": 11,
      "componentType": 5126,
      "count": 8088,
      "max": [
        1,
        1,
        1
      ],
      "min": [
        -0.9999845623970032,
        -0.9998413920402527,
        -1
      ],
      "type": "VEC3"
    },
    {
      "bufferView": 12,
      "componentType": 5126,
      "count": 8148,
      "max": [
        173.82000732421875,
        240.3300018310547,
        50
      ],
      "min": [
        105.72000122070312,
        174.7100067138672,
        0
      ],
      "type": "VEC3"
    },
    {
      "bufferView": 13,
      "componentType": 5126,
      "count": 8148,
      "max": [
        237.81533813476562,
        240.3300018310547
      ],
      "min": [
        105.72000122070312,
        -49
      ],
      "type": "VEC2"
    },
    {
      "bufferView": 14,
      "componentType": 5126,
      "count": 8148,
      "max": [
        1,
        1,
        1
      ],
      "min": [
        -1,
        -1,
        -1
      ],
      "type": "VEC3"
    },
    {
      "bufferView": 15,
      "componentType": 5126,
      "count": 7308,
      "max": [
        238.3800048828125,
        240.1999969482422,
        50
      ],
      "min": [
        175.85000610351562,
        175.05999755859375,
        0
      ],
      "type": "VEC3"
    },
    {
      "bufferView": 16,
      "componentType": 5126,
      "count": 7308,
      "max": [
        238.3800048828125,
        240.1999969482422
      ],
      "min": [
        175.85000610351562,
        -49
      ],
      "type": "VEC2"
    },
    {
      "bufferView": 17,
      "componentType": 5126,
      "count": 7308,
      "max": [
        1,
        1,
        1
      ],
      "min": [
        -0.999992311000824,
        -0.9999791383743286,
        -1
      ],
      "type": "VEC3"
    },
    {
      "bufferView": 18,
      "componentType": 5126,
      "count": 8088,
      "max": [
        309.1199951171875,
        240.3300018310547,
        50
      ],
      "min": [
        243.1199951171875,
        174.35000610351562,
        0
      ],
      "type": "VEC3"
    },
    {
      "bufferView": 19,
      "componentType": 5126,
      "count": 8088,
      "max": [
        309.1199951171875,
        240.3300018310547
      ],
      "min": [
        179.9499969482422,
        -49
      ],
      "type": "VEC2"
    },
    {
      "bufferView": 20,
      "componentType": 5126,
      "count": 8088,
      "max": [
        0.9999905824661255,
        0.9999859929084778,
        1
      ],
      "min": [
        -0.9999848008155823,
        -0.9998417496681213,
        -1
      ],
      "type": "VEC3"
    }
  ],
  "materials": [
    {
      "pbrMetallicRoughness": {
        "baseColorFactor": [
          0.7681511472425809,
          0.20863687013464577,
          0.21223075740342198,
          1
        ],
        "metallicFactor": 0,
        "roughnessFactor": 0.7
      },
      "doubleSided": true,
      "extras": {
        "originalProperties": {
          "color": 14909055,
          "roughness": 0.7,
          "metalness": 0,
          "clearcoat": 0,
          "clearcoatRoughness": 0.01,
          "transmission": 0,
          "ior": 1.4,
          "opacity": 1,
          "sheen": 0.1,
          "sheenRoughness": 0.8
        },
        "isHole": false
      },
      "extensions": {
        "KHR_materials_ior": {
          "ior": 1.4
        },
        "KHR_materials_sheen": {
          "sheenRoughnessFactor": 0.8,
          "sheenColorFactor": [
            0.1,
            0.1,
            0.1
          ]
        }
      }
    },
    {
      "pbrMetallicRoughness": {
        "baseColorFactor": [
          0.7681511472425809,
          0.20863687013464577,
          0.21223075740342198,
          1
        ],
        "metallicFactor": 0,
        "roughnessFactor": 0.7
      },
      "doubleSided": true,
      "extras": {
        "originalProperties": {
          "color": 14909055,
          "roughness": 0.7,
          "metalness": 0,
          "clearcoat": 0,
          "clearcoatRoughness": 0.01,
          "transmission": 0,
          "ior": 1.4,
          "opacity": 1,
          "sheen": 0.1,
          "sheenRoughness": 0.8
        },
        "isHole": false
      },
      "extensions": {
        "KHR_materials_ior": {
          "ior": 1.4
        },
        "KHR_materials_sheen": {
          "sheenRoughnessFactor": 0.8,
          "sheenColorFactor": [
            0.1,
            0.1,
            0.1
          ]
        }
      }
    },
    {
      "pbrMetallicRoughness": {
        "baseColorFactor": [
          0.7681511472425809,
          0.20863687013464577,
          0.21223075740342198,
          1
        ],
        "metallicFactor": 0,
        "roughnessFactor": 0.7
      },
      "doubleSided": true,
      "extras": {
        "originalProperties": {
          "color": 14909055,
          "roughness": 0.7,
          "metalness": 0,
          "clearcoat": 0,
          "clearcoatRoughness": 0.01,
          "transmission": 0,
          "ior": 1.4,
          "opacity": 1,
          "sheen": 0.1,
          "sheenRoughness": 0.8
        },
        "isHole": false
      },
      "extensions": {
        "KHR_materials_ior": {
          "ior": 1.4
        },
        "KHR_materials_sheen": {
          "sheenRoughnessFactor": 0.8,
          "sheenColorFactor": [
            0.1,
            0.1,
            0.1
          ]
        }
      }
    },
    {
      "pbrMetallicRoughness": {
        "baseColorFactor": [
          0.7681511472425809,
          0.20863687013464577,
          0.21223075740342198,
          1
        ],
        "metallicFactor": 0,
        "roughnessFactor": 0.7
      },
      "doubleSided": true,
      "extras": {
        "originalProperties": {
          "color": 14909055,
          "roughness": 0.7,
          "metalness": 0,
          "clearcoat": 0,
          "clearcoatRoughness": 0.01,
          "transmission": 0,
          "ior": 1.4,
          "opacity": 1,
          "sheen": 0.1,
          "sheenRoughness": 0.8
        },
        "isHole": false
      },
      "extensions": {
        "KHR_materials_ior": {
          "ior": 1.4
        },
        "KHR_materials_sheen": {
          "sheenRoughnessFactor": 0.8,
          "sheenColorFactor": [
            0.1,
            0.1,
            0.1
          ]
        }
      }
    },
    {
      "pbrMetallicRoughness": {
        "baseColorFactor": [
          0.7681511472425809,
          0.20863687013464577,
          0.21223075740342198,
          1
        ],
        "metallicFactor": 0,
        "roughnessFactor": 0.7
      },
      "doubleSided": true,
      "extras": {
        "originalProperties": {
          "color": 14909055,
          "roughness": 0.7,
          "metalness": 0,
          "clearcoat": 0,
          "clearcoatRoughness": 0.01,
          "transmission": 0,
          "ior": 1.4,
          "opacity": 1,
          "sheen": 0.1,
          "sheenRoughness": 0.8
        },
        "isHole": false
      },
      "extensions": {
        "KHR_materials_ior": {
          "ior": 1.4
        },
        "KHR_materials_sheen": {
          "sheenRoughnessFactor": 0.8,
          "sheenColorFactor": [
            0.1,
            0.1,
            0.1
          ]
        }
      }
    },
    {
      "pbrMetallicRoughness": {
        "baseColorFactor": [
          0.7681511472425809,
          0.20863687013464577,
          0.21223075740342198,
          1
        ],
        "metallicFactor": 0,
        "roughnessFactor": 0.7
      },
      "doubleSided": true,
      "extras": {
        "originalProperties": {
          "color": 14909055,
          "roughness": 0.7,
          "metalness": 0,
          "clearcoat": 0,
          "clearcoatRoughness": 0.01,
          "transmission": 0,
          "ior": 1.4,
          "opacity": 1,
          "sheen": 0.1,
          "sheenRoughness": 0.8
        },
        "isHole": false
      },
      "extensions": {
        "KHR_materials_ior": {
          "ior": 1.4
        },
        "KHR_materials_sheen": {
          "sheenRoughnessFactor": 0.8,
          "sheenColorFactor": [
            0.1,
            0.1,
            0.1
          ]
        }
      }
    },
    {
      "pbrMetallicRoughness": {
        "baseColorFactor": [
          0.7681511472425809,
          0.20863687013464577,
          0.21223075740342198,
          1
        ],
        "metallicFactor": 0,
        "roughnessFactor": 0.7
      },
      "doubleSided": true,
      "extras": {
        "originalProperties": {
          "color": 14909055,
          "roughness": 0.7,
          "metalness": 0,
          "clearcoat": 0,
          "clearcoatRoughness": 0.01,
          "transmission": 0,
          "ior": 1.4,
          "opacity": 1,
          "sheen": 0.1,
          "sheenRoughness": 0.8
        },
        "isHole": false
      },
      "extensions": {
        "KHR_materials_ior": {
          "ior": 1.4
        },
        "KHR_materials_sheen": {
          "sheenRoughnessFactor": 0.8,
          "sheenColorFactor": [
            0.1,
            0.1,
            0.1
          ]
        }
      }
    }
  ],
  "meshes": [
    {
      "primitives": [
        {
          "mode": 4,
          "attributes": {
            "POSITION": 0,
            "TEXCOORD_0": 1,
            "NORMAL": 2
          },
          "material": 0
        }
      ]
    },
    {
      "primitives": [
        {
          "mode": 4,
          "attributes": {
            "POSITION": 3,
            "TEXCOORD_0": 4,
            "NORMAL": 5
          },
          "material": 1
        }
      ]
    },
    {
      "primitives": [
        {
          "mode": 4,
          "attributes": {
            "POSITION": 6,
            "TEXCOORD_0": 7,
            "NORMAL": 8
          },
          "material": 2
        }
      ]
    },
    {
      "primitives": [
        {
          "mode": 4,
          "attributes": {
            "POSITION": 9,
            "TEXCOORD_0": 10,
            "NORMAL": 11
          },
          "material": 3
        }
      ]
    },
    {
      "primitives": [
        {
          "mode": 4,
          "attributes": {
            "POSITION": 12,
            "TEXCOORD_0": 13,
            "NORMAL": 14
          },
          "material": 4
        }
      ]
    },
    {
      "primitives": [
        {
          "mode": 4,
          "attributes": {
            "POSITION": 15,
            "TEXCOORD_0": 16,
            "NORMAL": 17
          },
          "material": 5
        }
      ]
    },
    {
      "primitives": [
        {
          "mode": 4,
          "attributes": {
            "POSITION": 18,
            "TEXCOORD_0": 19,
            "NORMAL": 20
          },
          "material": 6
        }
      ]
    }
  ],
  "extensionsUsed": [
    "KHR_materials_ior",
    "KHR_materials_sheen"
  ]
}